<svg width="1200" height="380" viewBox="0 0 1200 380" fill="none" xmlns="http://www.w3.org/2000/svg">
  <defs>
    <linearGradient id="bg" x1="0" y1="0" x2="1200" y2="380">
      <stop offset="0%" stop-color="#020617"/>
      <stop offset="45%" stop-color="#0f172a"/>
      <stop offset="100%" stop-color="#111827"/>
    </linearGradient>
    <linearGradient id="accent" x1="0" y1="0" x2="1200" y2="0">
      <stop offset="0%" stop-color="#38bdf8"/>
      <stop offset="45%" stop-color="#6366f1"/>
      <stop offset="100%" stop-color="#a855f7"/>
    </linearGradient>
    <radialGradient id="glow1" cx="50%" cy="50%" r="50%">
      <stop offset="0%" stop-color="#38bdf8" stop-opacity="0.45"/>
      <stop offset="100%" stop-color="#38bdf8" stop-opacity="0"/>
    </radialGradient>
    <radialGradient id="glow2" cx="50%" cy="50%" r="50%">
      <stop offset="0%" stop-color="#a855f7" stop-opacity="0.45"/>
      <stop offset="100%" stop-color="#a855f7" stop-opacity="0"/>
    </radialGradient>
    <filter id="shadow" x="-20%" y="-20%" width="140%" height="140%">
      <feDropShadow dx="0" dy="18" stdDeviation="18" flood-color="#000000" flood-opacity="0.45"/>
    </filter>
  </defs>
  <rect width="1200" height="380" rx="34" fill="url(#bg)"/>
  <circle cx="160" cy="90" r="150" fill="url(#glow1)"/>
  <circle cx="1020" cy="290" r="180" fill="url(#glow2)"/>
  <path d="M0 300 C220 230 360 370 590 285 C820 200 980 250 1200 160" stroke="url(#accent)" stroke-width="3" opacity="0.75"/>
  <path d="M0 330 C260 260 390 395 620 315 C850 235 1000 285 1200 195" stroke="url(#accent)" stroke-width="1.5" opacity="0.35"/>
  <rect x="70" y="62" width="1060" height="250" rx="28" fill="#020617" fill-opacity="0.68" stroke="#334155" filter="url(#shadow)"/>
  <text x="95" y="112" fill="#94a3b8" font-family="Segoe UI, Arial, sans-serif" font-size="20" font-weight="600" letter-spacing="4">
    FOUNDER • SOFTWARE ENGINEER • SECURITY FIRST
  </text>
  <text x="92" y="175" fill="#ffffff" font-family="Segoe UI, Arial, sans-serif" font-size="64" font-weight="800">
    Aamir Akram
  </text>
  <text x="96" y="222" fill="#cbd5e1" font-family="Segoe UI, Arial, sans-serif" font-size="25" font-weight="500">
    Founder &amp; CEO at ApexZero
  </text>
  <text x="96" y="260" fill="#e2e8f0" font-family="Segoe UI, Arial, sans-serif" font-size="22" font-weight="500">
    Full-Stack Development • Cybersecurity • AI Automation • Trading Technology
  </text>
  <rect x="95" y="286" width="148" height="38" rx="19" fill="#0f172a" stroke="#38bdf8"/>
  <text x="124" y="311" fill="#e0f2fe" font-family="Segoe UI, Arial, sans-serif" font-size="16" font-weight="700">React</text>
  <rect x="258" y="286" width="148" height="38" rx="19" fill="#0f172a" stroke="#6366f1"/>
  <text x="292" y="311" fill="#e0e7ff" font-family="Segoe UI, Arial, sans-serif" font-size="16" font-weight="700">Python</text>
  <rect x="421" y="286" width="170" height="38" rx="19" fill="#0f172a" stroke="#a855f7"/>
  <text x="456" y="311" fill="#f3e8ff" font-family="Segoe UI, Arial, sans-serif" font-size="16" font-weight="700">Cybersecurity</text>
  <rect x="606" y="286" width="150" height="38" rx="19" fill="#0f172a" stroke="#22c55e"/>
  <text x="646" y="311" fill="#dcfce7" font-family="Segoe UI, Arial, sans-serif" font-size="16" font-weight="700">AI Tools</text>
  <rect x="771" y="286" width="205" height="38" rx="19" fill="#0f172a" stroke="#f59e0b"/>
  <text x="809" y="311" fill="#fef3c7" font-family="Segoe UI, Arial, sans-serif" font-size="16" font-weight="700">Trading Systems</text>
</svg>