<svg width="1280" height="520" viewBox="0 0 1280 520" fill="none" xmlns="http://www.w3.org/2000/svg">
  <defs>
    <linearGradient id="bg" x1="0" y1="0" x2="1280" y2="520">
      <stop offset="0%" stop-color="#020617"/>
      <stop offset="48%" stop-color="#0f172a"/>
      <stop offset="100%" stop-color="#111827"/>
    </linearGradient>
    <linearGradient id="line" x1="0" y1="0" x2="1280" y2="0">
      <stop offset="0%" stop-color="#38bdf8"/>
      <stop offset="50%" stop-color="#6366f1"/>
      <stop offset="100%" stop-color="#a855f7"/>
    </linearGradient>
    <radialGradient id="glowA" cx="50%" cy="50%" r="50%">
      <stop offset="0%" stop-color="#38bdf8" stop-opacity="0.42"/>
      <stop offset="100%" stop-color="#38bdf8" stop-opacity="0"/>
    </radialGradient>
    <radialGradient id="glowB" cx="50%" cy="50%" r="50%">
      <stop offset="0%" stop-color="#a855f7" stop-opacity="0.40"/>
      <stop offset="100%" stop-color="#a855f7" stop-opacity="0"/>
    </radialGradient>
  </defs>
  <rect width="1280" height="520" rx="38" fill="url(#bg)"/>
  <circle cx="150" cy="120" r="210" fill="url(#glowA)"/>
  <circle cx="1120" cy="420" r="260" fill="url(#glowB)"/>
  <path d="M0 390 C240 300 430 460 660 350 C890 240 1050 300 1280 185" stroke="url(#line)" stroke-width="4" opacity="0.75"/>
  <path d="M0 430 C260 350 460 500 700 390 C940 280 1090 340 1280 230" stroke="url(#line)" stroke-width="2" opacity="0.35"/>
  <rect x="75" y="72" width="1130" height="365" rx="34" fill="#020617" fill-opacity="0.72" stroke="#334155"/>
  <text x="105" y="140" fill="#94a3b8" font-family="Segoe UI, Arial, sans-serif" font-size="22" font-weight="700" letter-spacing="5">
    APEXZERO • TECHNOLOGY • SECURITY • AUTOMATION
  </text>
  <text x="100" y="220" fill="#ffffff" font-family="Segoe UI, Arial, sans-serif" font-size="78" font-weight="900">
    Aamir Akram
  </text>
  <rect x="105" y="250" width="405" height="46" rx="23" fill="#111827" stroke="#38bdf8"/>
  <text x="130" y="281" fill="#e0f2fe" font-family="Segoe UI, Arial, sans-serif" font-size="22" font-weight="800">
    Founder &amp; CEO at ApexZero
  </text>
  <text x="105" y="340" fill="#cbd5e1" font-family="Segoe UI, Arial, sans-serif" font-size="29" font-weight="600">
    Full-Stack Developer • Cybersecurity Researcher • AI Automation Builder
  </text>
  <text x="105" y="385" fill="#e2e8f0" font-family="Segoe UI, Arial, sans-serif" font-size="26" font-weight="500">
    Building secure, scalable, and premium digital products.
  </text>
</svg>