<svg width="1280" height="520" viewBox="0 0 1280 520" fill="none" xmlns="http://www.w3.org/2000/svg">
  <defs>
    <linearGradient id="bg" x1="0" y1="0" x2="1280" y2="520">
      <stop offset="0%" stop-color="#020617"/>
      <stop offset="45%" stop-color="#0f172a"/>
      <stop offset="100%" stop-color="#111827"/>
    </linearGradient>
    <linearGradient id="accent" x1="0" y1="0" x2="1280" y2="0">
      <stop offset="0%" stop-color="#38bdf8"/>
      <stop offset="50%" stop-color="#6366f1"/>
      <stop offset="100%" stop-color="#a855f7"/>
    </linearGradient>
    <radialGradient id="g1" cx="50%" cy="50%" r="50%">
      <stop offset="0%" stop-color="#38bdf8" stop-opacity="0.38"/>
      <stop offset="100%" stop-color="#38bdf8" stop-opacity="0"/>
    </radialGradient>
    <radialGradient id="g2" cx="50%" cy="50%" r="50%">
      <stop offset="0%" stop-color="#a855f7" stop-opacity="0.40"/>
      <stop offset="100%" stop-color="#a855f7" stop-opacity="0"/>
    </radialGradient>
  </defs>
  <rect width="1280" height="520" rx="36" fill="url(#bg)"/>
  <circle cx="160" cy="120" r="230" fill="url(#g1)"/>
  <circle cx="1110" cy="430" r="280" fill="url(#g2)"/>
  <path d="M0 385 C260 300 430 460 680 345 C900 245 1045 300 1280 180" stroke="url(#accent)" stroke-width="4" opacity="0.75"/>
  <path d="M0 430 C280 350 480 500 720 390 C960 285 1100 340 1280 230" stroke="url(#accent)" stroke-width="2" opacity="0.35"/>
  <rect x="78" y="76" width="1124" height="365" rx="34" fill="#020617" fill-opacity="0.76" stroke="#334155"/>
  <text x="105" y="140" fill="#94a3b8" font-family="Segoe UI, Arial, sans-serif" font-size="22" font-weight="700" letter-spacing="5">
    APEXZERO • FOUNDER • ENGINEER • SECURITY FIRST
  </text>
  <text x="100" y="220" fill="#ffffff" font-family="Segoe UI, Arial, sans-serif" font-size="78" font-weight="900">
    Aamir Akram
  </text>
  <rect x="105" y="252" width="420" height="48" rx="24" fill="#111827" stroke="#38bdf8"/>
  <text x="132" y="284" fill="#e0f2fe" font-family="Segoe UI, Arial, sans-serif" font-size="22" font-weight="800">
    Founder &amp; CEO at ApexZero
  </text>
  <text x="105" y="352" fill="#cbd5e1" font-family="Segoe UI, Arial, sans-serif" font-size="29" font-weight="650">
    Full-Stack Developer • Cybersecurity Researcher • AI Automation Builder
  </text>
  <text x="105" y="398" fill="#e2e8f0" font-family="Segoe UI, Arial, sans-serif" font-size="26" font-weight="500">
    Building secure, scalable, premium digital products and automation systems.
  </text>
</svg>