<svg width="1400" height="560" viewBox="0 0 1400 560" fill="none" xmlns="http://www.w3.org/2000/svg">
<defs>
<linearGradient id="bg" x1="0" y1="0" x2="1400" y2="560"><stop stop-color="#020617"/><stop offset="0.45" stop-color="#0f172a"/><stop offset="1" stop-color="#1e1b4b"/></linearGradient>
<linearGradient id="line" x1="0" y1="0" x2="1400" y2="0"><stop stop-color="#38bdf8"/><stop offset="0.5" stop-color="#6366f1"/><stop offset="1" stop-color="#d946ef"/></linearGradient>
<radialGradient id="g1"><stop stop-color="#38bdf8" stop-opacity=".45"/><stop offset="1" stop-color="#38bdf8" stop-opacity="0"/></radialGradient>
<radialGradient id="g2"><stop stop-color="#d946ef" stop-opacity=".45"/><stop offset="1" stop-color="#d946ef" stop-opacity="0"/></radialGradient>
</defs>
<rect width="1400" height="560" rx="44" fill="url(#bg)"/>
<circle cx="170" cy="120" r="280" fill="url(#g1)"/>
<circle cx="1220" cy="450" r="330" fill="url(#g2)"/>
<path d="M0 410 C260 315 470 500 725 360 C980 220 1135 305 1400 165" stroke="url(#line)" stroke-width="5" opacity=".75"/>
<path d="M0 460 C320 365 540 530 805 405 C1050 290 1205 365 1400 245" stroke="url(#line)" stroke-width="2" opacity=".35"/>
<rect x="74" y="68" width="1252" height="410" rx="40" fill="#020617" fill-opacity=".78" stroke="#334155"/>
<text x="110" y="135" fill="#93c5fd" font-family="Segoe UI, Arial" font-size="22" font-weight="800" letter-spacing="6">APEXZERO • FOUNDER • ENGINEER • SECURITY FIRST</text>
<text x="108" y="235" fill="#ffffff" font-family="Segoe UI, Arial" font-size="90" font-weight="900">Aamir Akram</text>
<rect x="112" y="272" width="455" height="54" rx="27" fill="#0f172a" stroke="#38bdf8"/>
<text x="142" y="308" fill="#e0f2fe" font-family="Segoe UI, Arial" font-size="25" font-weight="800">Founder &amp; CEO at ApexZero</text>
<text x="112" y="378" fill="#e2e8f0" font-family="Segoe UI, Arial" font-size="31" font-weight="650">Full-Stack Developer • Cybersecurity Researcher • AI Automation Builder</text>
<text x="112" y="428" fill="#cbd5e1" font-family="Segoe UI, Arial" font-size="27" font-weight="500">Building secure, scalable, premium digital products and automation systems.</text>
<rect x="112" y="455" width="160" height="38" rx="19" fill="#111827" stroke="#38bdf8"/><text x="157" y="481" fill="#e0f2fe" font-family="Segoe UI, Arial" font-size="17" font-weight="800">React</text>
<rect x="292" y="455" width="170" height="38" rx="19" fill="#111827" stroke="#6366f1"/><text x="335" y="481" fill="#e0e7ff" font-family="Segoe UI, Arial" font-size="17" font-weight="800">Python</text>
<rect x="482" y="455" width="210" height="38" rx="19" fill="#111827" stroke="#a855f7"/><text x="528" y="481" fill="#f3e8ff" font-family="Segoe UI, Arial" font-size="17" font-weight="800">Cybersecurity</text>
<rect x="712" y="455" width="170" height="38" rx="19" fill="#111827" stroke="#22c55e"/><text x="755" y="481" fill="#dcfce7" font-family="Segoe UI, Arial" font-size="17" font-weight="800">AI Tools</text>
<rect x="902" y="455" width="230" height="38" rx="19" fill="#111827" stroke="#f59e0b"/><text x="952" y="481" fill="#fef3c7" font-family="Segoe UI, Arial" font-size="17" font-weight="800">Trading Systems</text>
</svg>