<svg width="1400" height="450" viewBox="0 0 1400 450" fill="none" xmlns="http://www.w3.org/2000/svg">
<defs><linearGradient id="bg" x1="0" y1="0" x2="1400" y2="450"><stop stop-color="#0f172a"/><stop offset="1" stop-color="#020617"/></linearGradient><linearGradient id="l" x1="0" y1="0" x2="1400" y2="0"><stop stop-color="#38bdf8"/><stop offset=".5" stop-color="#6366f1"/><stop offset="1" stop-color="#d946ef"/></linearGradient></defs>
<rect width="1400" height="450" rx="36" fill="url(#bg)"/>
<rect x="55" y="50" width="1290" height="350" rx="30" fill="#020617" stroke="#334155"/>
<text x="90" y="125" fill="#ffffff" font-family="Segoe UI, Arial" font-size="44" font-weight="900">Founder Operating System</text>
<text x="92" y="170" fill="#94a3b8" font-family="Segoe UI, Arial" font-size="23">Build with clarity. Ship with discipline. Scale with security.</text>
<rect x="90" y="225" width="280" height="95" rx="20" fill="#111827" stroke="#38bdf8"/>
<text x="130" y="265" fill="#38bdf8" font-family="Segoe UI, Arial" font-size="27" font-weight="850">Think</text>
<text x="130" y="297" fill="#e2e8f0" font-family="Segoe UI, Arial" font-size="20">Like a Founder</text>
<rect x="405" y="225" width="280" height="95" rx="20" fill="#111827" stroke="#6366f1"/>
<text x="445" y="265" fill="#818cf8" font-family="Segoe UI, Arial" font-size="27" font-weight="850">Build</text>
<text x="445" y="297" fill="#e2e8f0" font-family="Segoe UI, Arial" font-size="20">Like an Engineer</text>
<rect x="720" y="225" width="280" height="95" rx="20" fill="#111827" stroke="#a855f7"/>
<text x="760" y="265" fill="#c084fc" font-family="Segoe UI, Arial" font-size="27" font-weight="850">Protect</text>
<text x="760" y="297" fill="#e2e8f0" font-family="Segoe UI, Arial" font-size="20">Like Security Researcher</text>
<rect x="1035" y="225" width="280" height="95" rx="20" fill="#111827" stroke="#22c55e"/>
<text x="1075" y="265" fill="#4ade80" font-family="Segoe UI, Arial" font-size="27" font-weight="850">Improve</text>
<text x="1075" y="297" fill="#e2e8f0" font-family="Segoe UI, Arial" font-size="20">Every Single Day</text>
<rect x="90" y="365" width="1225" height="5" rx="3" fill="url(#l)"/>
</svg>