<svg width="1400" height="520" viewBox="0 0 1400 520" fill="none" xmlns="http://www.w3.org/2000/svg">
  <defs>
    <linearGradient id="bg" x1="0" y1="0" x2="1400" y2="520">
      <stop offset="0%" stop-color="#020617"/>
      <stop offset="45%" stop-color="#0f172a"/>
      <stop offset="100%" stop-color="#1e1b4b"/>
    </linearGradient>
    <linearGradient id="brand" x1="0" y1="0" x2="1400" y2="0">
      <stop offset="0%" stop-color="#38bdf8"/>
      <stop offset="45%" stop-color="#6366f1"/>
      <stop offset="100%" stop-color="#d946ef"/>
    </linearGradient>
    <radialGradient id="glow1" cx="50%" cy="50%" r="50%">
      <stop offset="0%" stop-color="#38bdf8" stop-opacity="0.45"/>
      <stop offset="100%" stop-color="#38bdf8" stop-opacity="0"/>
    </radialGradient>
    <radialGradient id="glow2" cx="50%" cy="50%" r="50%">
      <stop offset="0%" stop-color="#d946ef" stop-opacity="0.45"/>
      <stop offset="100%" stop-color="#d946ef" stop-opacity="0"/>
    </radialGradient>
  </defs>
  <rect width="1400" height="520" rx="44" fill="url(#bg)"/>
  <circle cx="160" cy="115" r="260" fill="url(#glow1)"/>
  <circle cx="1210" cy="430" r="310" fill="url(#glow2)"/>
  <path d="M0 385 C260 295 460 465 720 335 C960 215 1120 295 1400 155" stroke="url(#brand)" stroke-width="5" opacity="0.75"/>
  <path d="M0 440 C310 350 520 510 790 390 C1040 280 1190 355 1400 240" stroke="url(#brand)" stroke-width="2" opacity="0.35"/>
  <rect x="78" y="70" width="1244" height="375" rx="38" fill="#020617" fill-opacity="0.76" stroke="#334155"/>
  <text x="112" y="132" fill="#93c5fd" font-family="Segoe UI, Arial" font-size="22" font-weight="800" letter-spacing="6">
    APEXZERO • FOUNDER • ENGINEER • SECURITY FIRST
  </text>
  <text x="108" y="222" fill="#ffffff" font-family="Segoe UI, Arial" font-size="86" font-weight="900">
    Aamir Akram
  </text>
  <rect x="112" y="258" width="450" height="52" rx="26" fill="#0f172a" stroke="#38bdf8"/>
  <text x="142" y="293" fill="#e0f2fe" font-family="Segoe UI, Arial" font-size="24" font-weight="800">
    Founder &amp; CEO at ApexZero
  </text>
  <text x="112" y="360" fill="#e2e8f0" font-family="Segoe UI, Arial" font-size="31" font-weight="650">
    Full-Stack Developer • Cybersecurity Researcher • AI Automation Builder
  </text>
  <text x="112" y="410" fill="#cbd5e1" font-family="Segoe UI, Arial" font-size="27" font-weight="500">
    Building secure, scalable, premium digital products and automation systems.
  </text>
</svg>