<svg width="1400" height="430" viewBox="0 0 1400 430" fill="none" xmlns="http://www.w3.org/2000/svg">
  <defs>
    <linearGradient id="bg" x1="0" y1="0" x2="1400" y2="430">
      <stop stop-color="#0f172a"/>
      <stop offset="1" stop-color="#020617"/>
    </linearGradient>
    <linearGradient id="grad" x1="0" y1="0" x2="1400" y2="0">
      <stop stop-color="#38bdf8"/>
      <stop offset="0.5" stop-color="#6366f1"/>
      <stop offset="1" stop-color="#d946ef"/>
    </linearGradient>
  </defs>
  <rect width="1400" height="430" rx="36" fill="url(#bg)"/>
  <rect x="52" y="50" width="1296" height="330" rx="30" fill="#020617" stroke="#334155"/>
  <text x="86" y="122" fill="#ffffff" font-family="Segoe UI, Arial" font-size="44" font-weight="900">Founder Operating System</text>
  <text x="88" y="165" fill="#94a3b8" font-family="Segoe UI, Arial" font-size="23">Build with clarity. Ship with discipline. Scale with security.</text>
  <rect x="86" y="215" width="280" height="90" rx="20" fill="#111827" stroke="#38bdf8"/>
  <text x="125" y="253" fill="#38bdf8" font-family="Segoe UI, Arial" font-size="26" font-weight="850">Think</text>
  <text x="125" y="285" fill="#e2e8f0" font-family="Segoe UI, Arial" font-size="20">Like a Founder</text>
  <rect x="400" y="215" width="280" height="90" rx="20" fill="#111827" stroke="#6366f1"/>
  <text x="440" y="253" fill="#818cf8" font-family="Segoe UI, Arial" font-size="26" font-weight="850">Build</text>
  <text x="440" y="285" fill="#e2e8f0" font-family="Segoe UI, Arial" font-size="20">Like an Engineer</text>
  <rect x="714" y="215" width="280" height="90" rx="20" fill="#111827" stroke="#a855f7"/>
  <text x="754" y="253" fill="#c084fc" font-family="Segoe UI, Arial" font-size="26" font-weight="850">Protect</text>
  <text x="754" y="285" fill="#e2e8f0" font-family="Segoe UI, Arial" font-size="20">Like Security Researcher</text>
  <rect x="1028" y="215" width="280" height="90" rx="20" fill="#111827" stroke="#22c55e"/>
  <text x="1068" y="253" fill="#4ade80" font-family="Segoe UI, Arial" font-size="26" font-weight="850">Improve</text>
  <text x="1068" y="285" fill="#e2e8f0" font-family="Segoe UI, Arial" font-size="20">Every Single Day</text>
  <rect x="86" y="340" width="1222" height="4" rx="2" fill="url(#grad)"/>
</svg>