<svg width="1200" height="360" viewBox="0 0 1200 360" fill="none" xmlns="http://www.w3.org/2000/svg">
  <defs>
    <linearGradient id="bg" x1="0" y1="0" x2="1200" y2="360">
      <stop offset="0%" stop-color="#0D1117"/>
      <stop offset="50%" stop-color="#0B1220"/>
      <stop offset="100%" stop-color="#111827"/>
    </linearGradient>
    <linearGradient id="accent" x1="0" y1="0" x2="1200" y2="0">
      <stop offset="0%" stop-color="#58A6FF"/>
      <stop offset="50%" stop-color="#38BDF8"/>
      <stop offset="100%" stop-color="#8B5CF6"/>
    </linearGradient>
    <radialGradient id="glow1" cx="20%" cy="15%" r="55%">
      <stop offset="0%" stop-color="#58A6FF" stop-opacity="0.35"/>
      <stop offset="100%" stop-color="#58A6FF" stop-opacity="0"/>
    </radialGradient>
    <radialGradient id="glow2" cx="90%" cy="80%" r="55%">
      <stop offset="0%" stop-color="#8B5CF6" stop-opacity="0.28"/>
      <stop offset="100%" stop-color="#8B5CF6" stop-opacity="0"/>
    </radialGradient>
  </defs>
  <rect width="1200" height="360" rx="28" fill="url(#bg)"/>
  <rect width="1200" height="360" rx="28" fill="url(#glow1)"/>
  <rect width="1200" height="360" rx="28" fill="url(#glow2)"/>
  <path d="M0 265 C220 210 380 305 610 245 C820 190 990 225 1200 130" stroke="url(#accent)" stroke-width="3" opacity="0.7"/>
  <path d="M0 305 C260 255 430 335 660 285 C870 240 1020 270 1200 190" stroke="url(#accent)" stroke-width="1.5" opacity="0.35"/>
  <rect x="58" y="55" width="1084" height="245" rx="24" fill="#0D1117" fill-opacity="0.72" stroke="#30363D"/>
  <rect x="58" y="55" width="1084" height="6" rx="3" fill="url(#accent)"/>
  <text x="92" y="115" fill="#58A6FF" font-family="Segoe UI, Arial, sans-serif" font-size="18" font-weight="800" letter-spacing="4">
    ROOT-AAMIR • SOFTWARE ENGINEER • APEXZERO
  </text>
  <text x="90" y="185" fill="#F0F6FC" font-family="Segoe UI, Arial, sans-serif" font-size="64" font-weight="900">
    Aamir Akram
  </text>
  <text x="92" y="230" fill="#C9D1D9" font-family="Segoe UI, Arial, sans-serif" font-size="24" font-weight="700">
    Full-Stack Developer • Cybersecurity Learner • AI Automation Builder
  </text>
  <text x="92" y="270" fill="#8B949E" font-family="Segoe UI, Arial, sans-serif" font-size="19" font-weight="600">
    Building secure web platforms, automation tools, trading systems, and digital products.
  </text>
</svg>